<?xml version="1.0" encoding="UTF-8"?>
<svg version="1.1" xmlns="http://www.w3.org/2000/svg" width="1002" height="1002">
<path d="M0 0 C6.79271306 0.33225227 11.31040707 3.20785482 17 6.75 C18.97011294 7.94605732 20.94150758 9.14000558 22.9140625 10.33203125 C23.92243164 10.94385254 24.93080078 11.55567383 25.96972656 12.18603516 C30.71961004 15.02938306 35.54443633 17.73426384 40.375 20.4375 C52.33090816 27.15451892 64.1688642 34.06623388 76 41 C89.76632606 49.06408105 103.56914709 57.05950185 117.42773438 64.96386719 C134.66270164 74.79477214 151.83806481 84.72723247 168.97070312 94.73535156 C183.56526804 103.25601602 198.20275172 111.70264173 212.88668823 120.06834412 C223.48944394 126.10910068 234.08577257 132.16141091 244.625 138.3125 C245.54958008 138.84568848 246.47416016 139.37887695 247.42675781 139.92822266 C248.26819336 140.42241699 249.10962891 140.91661133 249.9765625 141.42578125 C250.70955566 141.85286377 251.44254883 142.27994629 252.19775391 142.7199707 C254 144 254 144 256 147 C250.52180831 152.03238023 244.76751481 155.70724495 238.3125 159.375 C237.27375732 159.97296387 236.23501465 160.57092773 235.16479492 161.18701172 C232.36160033 162.79840655 229.55470662 164.40308159 226.74560547 166.00415039 C224.39974832 167.34243729 222.05669494 168.68559202 219.71362305 170.02874756 C214.37557233 173.08867965 209.03342822 176.14135269 203.6875 179.1875 C199.60128869 181.51585196 195.51720061 183.84775904 191.4375 186.1875 C184.34261134 190.25488887 177.24533795 194.31490976 170.09765625 198.2890625 C157.98339925 205.02485414 145.99510226 211.92766097 134.09399414 219.03369141 C125.54491339 224.12317652 116.90172716 229.01923945 108.20532227 233.8515625 C98.04011824 239.50916677 87.99870631 245.36974369 77.96630859 251.25878906 C63.07128569 260.00210621 48.14235786 268.68235007 33.12402344 277.2121582 C27.76765005 280.25690962 22.42841998 283.32276449 17.14453125 286.4921875 C15.82739136 287.27686401 15.82739136 287.27686401 14.48364258 288.07739258 C12.87692638 289.03813716 11.27603275 290.00871641 9.68237305 290.9909668 C4.48768625 294.08576293 4.48768625 294.08576293 1.77734375 293.60913086 C1.19082031 293.40811768 0.60429688 293.20710449 0 293 C-1.07041398 285.04236724 -1.21791105 277.1413191 -1.31640625 269.12109375 C-1.33701959 267.69905555 -1.35801706 266.27702287 -1.37937927 264.85499573 C-1.43414835 261.14139321 -1.48375361 257.42773962 -1.53222656 253.71405029 C-1.58277488 249.91283714 -1.63828561 246.11169667 -1.69335938 242.31054688 C-1.8003871 234.87375975 -1.90195115 227.43691151 -2 220 C-7.83137648 219.04470968 -13.60289932 218.69078094 -19.50390625 218.453125 C-20.51095108 218.41149231 -21.51799591 218.36985962 -22.55555725 218.32696533 C-33.34852096 217.90804107 -44.13700347 217.75761695 -54.9375 217.75 C-55.94793365 217.74899292 -56.95836731 217.74798584 -57.99942017 217.74694824 C-124.00455765 217.79102989 -179.69408245 237.02467145 -232.79394531 276.37060547 C-236.52951802 279.12970377 -240.29646947 281.84520155 -244.0625 284.5625 C-245.17939209 285.36965454 -245.17939209 285.36965454 -246.31884766 286.19311523 C-251.998434 290.29242929 -257.70576734 294.35113586 -263.43586731 298.3795166 C-266.89452762 300.81125124 -270.35064581 303.24621885 -273.7956543 305.69726562 C-284.265803 313.13821626 -294.85207474 320.39811568 -305.50048828 327.58129883 C-308.23627859 329.42823665 -310.96779096 331.28138429 -313.69921875 333.13476562 C-324.44631303 340.40349177 -335.32178822 347.4093318 -346.38964844 354.17993164 C-347.54394348 354.88836716 -347.54394348 354.88836716 -348.72155762 355.6111145 C-350.26723575 356.55332395 -351.81934825 357.48504297 -353.3770752 358.40719604 C-354.11147827 358.84830719 -354.84588135 359.28941833 -355.60253906 359.74389648 C-356.5858017 360.3252964 -356.5858017 360.3252964 -357.58892822 360.91844177 C-358.05458191 361.27535599 -358.5202356 361.6322702 -359 362 C-359 362.66 -359 363.32 -359 364 C-357.43746748 365.25847544 -357.43746748 365.25847544 -355.37109375 366.46875 C-354.59169434 366.95174561 -353.81229492 367.43474121 -353.00927734 367.93237305 C-352.16059082 368.44968994 -351.3119043 368.96700684 -350.4375 369.5 C-348.66709554 370.59885481 -346.89757204 371.69913015 -345.12890625 372.80078125 C-344.24992676 373.34686035 -343.37094727 373.89293945 -342.46533203 374.45556641 C-336.54954787 378.16157261 -330.77967646 382.08658644 -325 386 C-324.08976074 386.61504395 -323.17952148 387.23008789 -322.24169922 387.86376953 C-308.06870053 397.44580494 -293.97852553 407.13650782 -280 417 C-278.91912109 417.76256104 -278.91912109 417.76256104 -277.81640625 418.54052734 C-275.01998656 420.51405564 -272.22389503 422.48804123 -269.42944336 424.46435547 C-265.67031765 427.12152459 -261.9042681 429.76828396 -258.12890625 432.40234375 C-256.44010275 433.58072713 -254.75130068 434.75911257 -253.0625 435.9375 C-252.22291748 436.52313721 -251.38333496 437.10877441 -250.51831055 437.7121582 C-245.66079668 441.10946942 -240.84285405 444.55409193 -236.0559082 448.05004883 C-217.06464113 461.91166905 -197.23527179 473.89641529 -176 484 C-175.35595215 484.30679687 -174.7119043 484.61359375 -174.04833984 484.9296875 C-142.74718038 499.65594297 -108.41888599 505.19101221 -74.02734375 505.1328125 C-72.10082726 505.13424759 -72.10082726 505.13424759 -70.13539124 505.13571167 C-67.43538182 505.13717127 -64.73540586 505.1350934 -62.03540039 505.13037109 C-58.64344789 505.12471548 -55.25157531 505.12793752 -51.85962582 505.13394356 C-48.54052615 505.13851729 -45.22144565 505.13527212 -41.90234375 505.1328125 C-40.72034897 505.13483673 -39.53835419 505.13686096 -38.32054138 505.13894653 C-27.49942937 505.10990429 -16.84890372 504.51661446 -6 504 C-5.67 479.58 -5.34 455.16 -5 430 C0.17944121 428.7051397 2.40668027 430.50454444 6.75 433.0625 C7.53439453 433.51149658 8.31878906 433.96049316 9.12695312 434.4230957 C11.75928108 435.93535482 14.37999597 437.46649943 17 439 C18.86957805 440.08630522 20.73937474 441.17223424 22.609375 442.2578125 C26.63168495 444.59724357 30.64908869 446.94487825 34.6640625 449.296875 C41.05281992 453.03634589 47.46116076 456.74125034 53.875 460.4375 C54.95458984 461.05971436 56.03417969 461.68192871 57.14648438 462.32299805 C59.3368252 463.58511517 61.52725502 464.84707785 63.71777344 466.10888672 C70.22871257 469.86028024 76.73663194 473.61690994 83.24511719 477.37255859 C88.68585336 480.51182246 94.12731477 483.64981497 99.5703125 486.78515625 C111.05164953 493.4005933 122.51725101 500.04145782 133.95703125 506.72851562 C141.33002581 511.03508078 148.72429999 515.30375586 156.125 519.5625 C164.17817961 524.19684883 172.20020462 528.87805087 180.1875 533.625 C187.4534978 537.93902249 194.76253968 542.165235 202.125 546.3125 C203.0540918 546.83610107 203.98318359 547.35970215 204.94042969 547.89916992 C208.54954872 549.93197291 212.15894508 551.96428354 215.769104 553.99523926 C219.54280253 556.11888995 223.31292945 558.24869715 227.07928467 560.38534546 C228.30032647 561.07672103 229.52250432 561.76609477 230.74591064 562.45327759 C237.50192873 566.2491702 243.97226011 570.11236601 250 575 C249.68139648 576.87182617 249.68139648 576.87182617 249 579 C246.70760715 580.61979306 244.51123915 581.96778581 242.0625 583.3125 C241.31814697 583.73563477 240.57379395 584.15876953 239.80688477 584.59472656 C238.13341938 585.54598435 236.45703811 586.49212433 234.77832031 587.43408203 C230.74328366 589.70831095 226.73601122 592.02985047 222.72631836 594.34838867 C219.38082749 596.28276833 216.03232689 598.21186472 212.68359375 600.140625 C206.44337892 603.73939805 200.21919394 607.36505145 194 611 C179.07054772 619.7216394 164.11014578 628.39070279 149.08203125 636.94140625 C146.74207162 638.27323404 144.40221758 639.60524702 142.0625 640.9375 C141.48120331 641.26842651 140.89990662 641.59935303 140.30099487 641.94030762 C131.58102358 646.90865106 122.93182098 651.9834871 114.3125 657.125 C104.53175099 662.95901866 94.66169771 668.60234527 84.70800781 674.13549805 C78.28114964 677.71103972 71.90814417 681.35853042 65.58374023 685.11181641 C58.1303333 689.53135298 50.61655991 693.84516464 43.10620117 698.16699219 C37.48558816 701.40403302 31.87294352 704.653471 26.27734375 707.93359375 C25.20105713 708.56426758 24.12477051 709.19494141 23.01586914 709.84472656 C20.9812052 711.03848042 18.94775883 712.23431296 16.91577148 713.43261719 C1.20171491 722.65021436 1.20171491 722.65021436 -4 722 C-5.00586422 718.63991511 -5.15385734 715.53770083 -5.20532227 712.03808594 C-5.22526749 710.83714294 -5.24521271 709.63619995 -5.26576233 708.39886475 C-5.28247482 707.10708313 -5.29918732 705.81530151 -5.31640625 704.484375 C-5.33698963 703.14487079 -5.35798646 701.80537287 -5.37937927 700.46588135 C-5.43445709 696.94784659 -5.48392906 693.4297546 -5.53222656 689.91162109 C-5.58254625 686.31863336 -5.63817756 682.72572827 -5.69335938 679.1328125 C-5.800766 672.08861345 -5.90224949 665.0443402 -6 658 C-6.8125676 658.00444122 -7.62513519 658.00888245 -8.46232605 658.01345825 C-16.26755779 658.05418611 -24.07273528 658.08430539 -31.87804699 658.10362434 C-35.88708863 658.11389138 -39.89603976 658.12772063 -43.9050293 658.15087891 C-64.3833462 658.26592803 -84.58208053 657.73391174 -105 656 C-106.52598066 655.88177393 -108.05208702 655.76514741 -109.57836914 655.65087891 C-160.15690721 651.73118173 -208.6093496 637.22664827 -254 615 C-255.86445344 614.10129297 -257.72902894 613.20283912 -259.59375 612.3046875 C-283.56195387 600.65307029 -305.72445649 585.97196097 -327.23486328 570.28662109 C-330.75307027 567.72217423 -334.28386948 565.17507447 -337.8125 562.625 C-338.57208008 562.07577881 -339.33166016 561.52655762 -340.11425781 560.96069336 C-352.59026208 551.95009892 -365.1931693 543.12783791 -377.89599609 534.44042969 C-380.09548859 532.93462721 -382.29206446 531.42463801 -384.48828125 529.9140625 C-446.51839889 487.28787113 -507.89039396 453.56015609 -583.0859375 440.96484375 C-584.10518311 440.79146484 -585.12442871 440.61808594 -586.17456055 440.43945312 C-588.12625885 440.11430186 -590.08085365 439.8059107 -592.03833008 439.51757812 C-592.90611084 439.37642578 -593.7738916 439.23527344 -594.66796875 439.08984375 C-595.43391357 438.97503662 -596.1998584 438.86022949 -596.98901367 438.74194336 C-599.74594224 437.72478834 -600.49365625 436.51032247 -602 434 C-602.37473011 431.2332592 -602.37473011 431.2332592 -602.3742218 427.98971558 C-602.38123611 426.75864075 -602.38825043 425.52756592 -602.39547729 424.25918579 C-602.38804993 422.89788655 -602.3803188 421.53658894 -602.37231445 420.17529297 C-602.37474279 418.73953996 -602.37846252 417.30378864 -602.38337708 415.86804199 C-602.39278232 411.9714843 -602.38336474 408.07517795 -602.37004495 404.17863989 C-602.35873257 400.10364079 -602.36283768 396.02865409 -602.36479187 391.9536438 C-602.36567471 385.11244598 -602.35459484 378.27134728 -602.33618164 371.43017578 C-602.31499724 363.51392444 -602.31150777 355.59781813 -602.3177436 347.68154418 C-602.32343158 340.07186772 -602.31779939 332.46224247 -602.30657005 324.85257339 C-602.30191827 321.61097392 -602.30105269 318.36940571 -602.3031559 315.1278038 C-602.30503501 311.31435935 -602.2969642 307.50106322 -602.2810955 303.68765259 C-602.27684162 302.28557066 -602.27600949 300.88347372 -602.27878571 299.48138809 C-602.28199202 297.57302428 -602.27172938 295.66465176 -602.26069641 293.75631714 C-602.25761711 292.15189412 -602.25761711 292.15189412 -602.25447559 290.51505852 C-602 288 -602 288 -600 286 C-597.89510422 285.5186536 -595.76657386 285.13926437 -593.6328125 284.80859375 C-592.27649394 284.58942968 -590.92029839 284.36950332 -589.56420898 284.14892578 C-588.84240448 284.03389709 -588.12059998 283.91886841 -587.37692261 283.800354 C-560.34444671 279.44459059 -533.78648895 272.8249604 -507.87060547 263.97509766 C-504.95367631 262.9842646 -502.02705887 262.02747161 -499.09765625 261.07421875 C-477.90456606 254.07975883 -458.94552944 244.16579665 -439.84570312 232.70214844 C-437.23506866 231.14060558 -434.61311268 229.60111618 -431.984375 228.0703125 C-406.55352159 213.17741893 -382.41418407 196.04394342 -358.57592773 178.75268555 C-352.88081948 174.62352783 -347.1418197 170.5602994 -341.38720703 166.51464844 C-336.29047941 162.92566846 -331.23371602 159.28455378 -326.1875 155.625 C-323.90729855 153.9778038 -321.62579446 152.33244072 -319.34326172 150.68847656 C-317.76548261 149.55158134 -316.18900837 148.41287326 -314.61376953 147.27246094 C-238.28726914 92.16229678 -149.27350929 65.74930137 -55.7109375 64.68359375 C-54.14482185 64.66293395 -52.57871063 64.64193583 -51.01260376 64.62062073 C-46.95881828 64.56632874 -42.90499066 64.51652405 -38.85113525 64.46777344 C-34.6871786 64.41686455 -30.52328052 64.36154681 -26.359375 64.30664062 C-18.23963335 64.2002014 -10.11984158 64.09852004 -2 64 C-1.98969254 63.24244919 -1.97938507 62.48489838 -1.96876526 61.70439148 C-1.87081937 54.56791831 -1.76830906 47.43153228 -1.66066074 40.29519939 C-1.60547799 36.62627332 -1.55206546 32.95733921 -1.50268555 29.28833008 C-1.45497338 25.74806108 -1.40262815 22.20788823 -1.34705925 18.66773415 C-1.31673705 16.65863701 -1.29122315 14.64946919 -1.26576233 12.64030457 C-1.24581711 11.41926529 -1.22587189 10.19822601 -1.20532227 8.94018555 C-1.18200584 7.32469063 -1.18200584 7.32469063 -1.15821838 5.67655945 C-1 3 -1 3 0 0 Z " fill="#A9D0FD" transform="translate(679,130)"/>
</svg>
